<mxfile host="app.diagrams.net" modified="2023-11-16T04:34:04.511Z" agent="Mozilla/5.0 (Windows NT 10.0; Win64; x64) AppleWebKit/537.36 (KHTML, like Gecko) Chrome/119.0.0.0 Safari/537.36" etag="Vt2tHzLS_l4gHVW6VgMY" version="22.1.2" type="github">
  <diagram name="第 1 页" id="vtIGTAaH8jRVGxK0NkSH">
    <mxGraphModel dx="350" dy="194" grid="1" gridSize="10" guides="1" tooltips="1" connect="1" arrows="1" fold="1" page="1" pageScale="1" pageWidth="827" pageHeight="1169" math="0" shadow="0">
      <root>
        <mxCell id="0" />
        <mxCell id="1" parent="0" />
        <mxCell id="YpNcD-B7_mTd9OUMBv7g-2" value="" style="ellipse;whiteSpace=wrap;html=1;aspect=fixed;" vertex="1" parent="1">
          <mxGeometry x="330" y="80" width="30" height="30" as="geometry" />
        </mxCell>
        <mxCell id="YpNcD-B7_mTd9OUMBv7g-15" style="rounded=0;orthogonalLoop=1;jettySize=auto;html=1;exitX=0;exitY=0;exitDx=0;exitDy=0;entryX=1;entryY=0.5;entryDx=0;entryDy=0;endArrow=none;endFill=0;" edge="1" parent="1" source="YpNcD-B7_mTd9OUMBv7g-6" target="YpNcD-B7_mTd9OUMBv7g-2">
          <mxGeometry relative="1" as="geometry" />
        </mxCell>
        <mxCell id="YpNcD-B7_mTd9OUMBv7g-6" value="" style="ellipse;whiteSpace=wrap;html=1;aspect=fixed;" vertex="1" parent="1">
          <mxGeometry x="420" y="180" width="30" height="30" as="geometry" />
        </mxCell>
        <mxCell id="YpNcD-B7_mTd9OUMBv7g-14" style="rounded=0;orthogonalLoop=1;jettySize=auto;html=1;exitX=0;exitY=0.5;exitDx=0;exitDy=0;entryX=1;entryY=0.5;entryDx=0;entryDy=0;endArrow=none;endFill=0;" edge="1" parent="1" source="YpNcD-B7_mTd9OUMBv7g-7" target="YpNcD-B7_mTd9OUMBv7g-9">
          <mxGeometry relative="1" as="geometry" />
        </mxCell>
        <mxCell id="YpNcD-B7_mTd9OUMBv7g-7" value="" style="ellipse;whiteSpace=wrap;html=1;aspect=fixed;" vertex="1" parent="1">
          <mxGeometry x="450" y="120" width="30" height="30" as="geometry" />
        </mxCell>
        <mxCell id="YpNcD-B7_mTd9OUMBv7g-13" style="rounded=0;orthogonalLoop=1;jettySize=auto;html=1;exitX=0;exitY=0;exitDx=0;exitDy=0;entryX=0.5;entryY=1;entryDx=0;entryDy=0;endArrow=none;endFill=0;" edge="1" parent="1" source="YpNcD-B7_mTd9OUMBv7g-9" target="YpNcD-B7_mTd9OUMBv7g-2">
          <mxGeometry relative="1" as="geometry" />
        </mxCell>
        <mxCell id="YpNcD-B7_mTd9OUMBv7g-9" value="" style="ellipse;whiteSpace=wrap;html=1;aspect=fixed;" vertex="1" parent="1">
          <mxGeometry x="360" y="150" width="30" height="30" as="geometry" />
        </mxCell>
        <mxCell id="YpNcD-B7_mTd9OUMBv7g-11" style="rounded=0;orthogonalLoop=1;jettySize=auto;html=1;exitX=0;exitY=0.5;exitDx=0;exitDy=0;entryX=1;entryY=0.5;entryDx=0;entryDy=0;endArrow=none;endFill=0;" edge="1" parent="1" source="YpNcD-B7_mTd9OUMBv7g-10" target="YpNcD-B7_mTd9OUMBv7g-2">
          <mxGeometry relative="1" as="geometry" />
        </mxCell>
        <mxCell id="YpNcD-B7_mTd9OUMBv7g-12" style="rounded=0;orthogonalLoop=1;jettySize=auto;html=1;exitX=0.5;exitY=1;exitDx=0;exitDy=0;entryX=0.5;entryY=0;entryDx=0;entryDy=0;endArrow=none;endFill=0;" edge="1" parent="1" source="YpNcD-B7_mTd9OUMBv7g-10" target="YpNcD-B7_mTd9OUMBv7g-6">
          <mxGeometry relative="1" as="geometry" />
        </mxCell>
        <mxCell id="YpNcD-B7_mTd9OUMBv7g-10" value="" style="ellipse;whiteSpace=wrap;html=1;aspect=fixed;" vertex="1" parent="1">
          <mxGeometry x="430" y="60" width="30" height="30" as="geometry" />
        </mxCell>
        <mxCell id="YpNcD-B7_mTd9OUMBv7g-16" style="rounded=0;orthogonalLoop=1;jettySize=auto;html=1;exitX=0.5;exitY=1;exitDx=0;exitDy=0;entryX=0.893;entryY=0.227;entryDx=0;entryDy=0;entryPerimeter=0;endArrow=none;endFill=0;" edge="1" parent="1" source="YpNcD-B7_mTd9OUMBv7g-7" target="YpNcD-B7_mTd9OUMBv7g-6">
          <mxGeometry relative="1" as="geometry" />
        </mxCell>
      </root>
    </mxGraphModel>
  </diagram>
</mxfile>
